<?xml version="1.0" encoding="UTF-8" standalone="no"?>
<!DOCTYPE svg PUBLIC "-//W3C//DTD SVG 1.1//EN" "http://www.w3.org/Graphics/SVG/1.1/DTD/svg11.dtd">
<svg viewBox="0 0 37 24" version="1.1" xmlns="http://www.w3.org/2000/svg" xmlns:xlink="http://www.w3.org/1999/xlink" xml:space="preserve" xmlns:serif="http://www.serif.com/" style="fill-rule:evenodd;clip-rule:evenodd;stroke-linejoin:round;stroke-miterlimit:2;">
<!-- <svg viewBox="0 0 25 16" version="1.1" xmlns="http://www.w3.org/2000/svg" xmlns:xlink="http://www.w3.org/1999/xlink" xml:space="preserve" xmlns:serif="http://www.serif.com/" style="fill-rule:evenodd;clip-rule:evenodd;stroke-linejoin:round;stroke-miterlimit:2;"> -->
    <g transform="matrix(0.793118,0,0,0.771157,23.1084,0.467576)">
        <path d="M8.636,3.5C8.636,3.226 8.41,3 8.136,3L1.5,3C0.677,3 -0,3.677 0,4.5L0,14.5C0,15.323 0.677,16 1.5,16L11.5,16C12.323,16 13,15.323 13,14.5L13,7.864C13,7.59 12.774,7.364 12.5,7.364C12.226,7.364 12,7.59 12,7.864L12,14.5C12,14.774 11.774,15 11.5,15L1.5,15C1.226,15 1,14.774 1,14.5L1,4.5C1,4.226 1.226,4 1.5,4L8.136,4C8.41,4 8.636,3.774 8.636,3.5Z" style="fill:#1d3557;"/>
    </g>
    <g transform="matrix(0.927016,0,0,0.927016,21.3677,0)">
        <path d="M16,0.5C16,0.226 15.774,0 15.5,0L10.5,0C10.226,0 10,0.226 10,0.5C10,0.774 10.226,1 10.5,1L14.293,1L6.146,9.146C6.052,9.24 5.999,9.367 5.999,9.5C5.999,9.775 6.225,10.001 6.5,10.001C6.633,10.001 6.76,9.948 6.854,9.854L15,1.707L15,5.5C15,5.774 15.226,6 15.5,6C15.774,6 16,5.774 16,5.5L16,0.5Z" style="fill:#1d3557;"/>
    </g>
    <g transform="matrix(2.35973,0,0,2.35973,5.07938,-13.7557)">
        <path d="M6.885,11.271L5.982,11.823L0.037,8.19C0.192,7.512 0.8,7.027 1.495,7.027L6.801,7.027L6.801,10.79C6.801,10.959 6.83,11.121 6.885,11.271ZM11.963,12.19L11.963,14.356L8.431,12.19L11.963,12.19ZM0,9.044L4.339,11.695L0,14.356L0,9.044ZM5.055,12.134L5.982,12.7L6.907,12.134L11.82,15.145C11.573,15.666 11.045,16 10.468,16L1.495,16C0.918,16.001 0.39,15.667 0.143,15.145L5.055,12.134Z" style="fill:#1d3557;fill-rule:nonzero;"/>
    </g>
</svg>
