<?xml version="1.0" encoding="UTF-8" standalone="no"?>
<!DOCTYPE svg PUBLIC "-//W3C//DTD SVG 1.1//EN" "http://www.w3.org/Graphics/SVG/1.1/DTD/svg11.dtd">
<svg width="100%" height="100%" viewBox="0 0 75 75" version="1.1" xmlns="http://www.w3.org/2000/svg" xmlns:xlink="http://www.w3.org/1999/xlink" xml:space="preserve" xmlns:serif="http://www.serif.com/" style="fill-rule:evenodd;clip-rule:evenodd;stroke-linejoin:round;stroke-miterlimit:2;">
    <g transform="matrix(1.84796,0,0,1.84632,21.1639,24.2897)">
        <path d="M8.636,3.5C8.636,3.226 8.41,3 8.136,3L1.5,3C0.677,3 -0,3.677 0,4.5L0,14.5C0,15.323 0.677,16 1.5,16L11.5,16C12.323,16 13,15.323 13,14.5L13,7.864C13,7.59 12.774,7.364 12.5,7.364C12.226,7.364 12,7.59 12,7.864L12,14.5C12,14.774 11.774,15 11.5,15L1.5,15C1.226,15 1,14.774 1,14.5L1,4.5C1,4.226 1.226,4 1.5,4L8.136,4C8.41,4 8.636,3.774 8.636,3.5Z" style="fill:#8acbcd;stroke:#8acbcd;stroke-width:2.71px;"/>
    </g>
    <g transform="matrix(1.49861,0,0,1.49861,27.2394,23.7881)">
        <path d="M16,0.5C16,0.226 15.774,0 15.5,0L6.499,0C6.225,0 5.999,0.226 5.999,0.5C5.999,0.774 6.225,1 6.499,1L14.293,1L4.108,11.184C4.014,11.278 3.961,11.406 3.961,11.538C3.961,11.813 4.187,12.039 4.462,12.039C4.594,12.039 4.722,11.986 4.816,11.892L15,1.707L15,9.501C15,9.775 15.226,10.001 15.5,10.001C15.774,10.001 16,9.775 16,9.501L16,0.5Z" style="fill:#8acbcd;stroke:#8acbcd;stroke-width:3.34px;"/>
    </g>
    <g transform="matrix(1.84796,0,0,1.84632,23.7827,21.6709)">
        <path d="M8.636,3.5C8.636,3.226 8.41,3 8.136,3L1.5,3C0.677,3 -0,3.677 0,4.5L0,14.5C0,15.323 0.677,16 1.5,16L11.5,16C12.323,16 13,15.323 13,14.5L13,7.864C13,7.59 12.774,7.364 12.5,7.364C12.226,7.364 12,7.59 12,7.864L12,14.5C12,14.774 11.774,15 11.5,15L1.5,15C1.226,15 1,14.774 1,14.5L1,4.5C1,4.226 1.226,4 1.5,4L8.136,4C8.41,4 8.636,3.774 8.636,3.5Z" style="fill:#1d3557;stroke:#1d3557;stroke-width:0.81px;"/>
    </g>
    <g transform="matrix(1.49861,0,0,1.49861,29.8583,21.1692)">
        <path d="M16,0.5C16,0.226 15.774,0 15.5,0L6.499,0C6.225,0 5.999,0.226 5.999,0.5C5.999,0.774 6.225,1 6.499,1L14.293,1L4.108,11.184C4.014,11.278 3.961,11.406 3.961,11.538C3.961,11.813 4.187,12.039 4.462,12.039C4.594,12.039 4.722,11.986 4.816,11.892L15,1.707L15,9.501C15,9.775 15.226,10.001 15.5,10.001C15.774,10.001 16,9.775 16,9.501L16,0.5Z" style="fill:#1d3557;stroke:#1d3557;stroke-width:1px;"/>
    </g>
</svg>
