<svg width="100%" height="100%" viewBox="0 0 32 32" version="1.1" xmlns="http://www.w3.org/2000/svg" xmlns:xlink="http://www.w3.org/1999/xlink" xml:space="preserve" xmlns:serif="http://www.serif.com/" style="fill-rule:evenodd;clip-rule:evenodd;stroke-linejoin:round;stroke-miterlimit:2;">
    <path d="M32,4.008C32,2.945 31.578,1.925 30.826,1.174C30.075,0.422 29.055,-0 27.992,0L4.008,-0C2.945,-0 1.925,0.422 1.174,1.174C0.422,1.925 -0,2.945 0,4.008L0,27.992C-0,29.055 0.422,30.075 1.174,30.826C1.925,31.578 2.945,32 4.008,32L27.992,32C29.055,32 30.075,31.578 30.826,30.826C31.578,30.075 32,29.055 32,27.992L32,4.008Z" style="fill:#29456c;"/>
    <g transform="matrix(1.58894,0,0,1.58894,-3.01283,-2.22833)">
        <g transform="matrix(12.4475,0,0,12.4475,4.11582,16)">
            <path d="M0.177,-0.092C0.17,-0.087 0.166,-0.08 0.165,-0.072C0.164,-0.064 0.162,-0.056 0.16,-0.048C0.158,-0.04 0.155,-0.033 0.15,-0.028C0.145,-0.022 0.136,-0.02 0.124,-0.021C0.121,-0.017 0.121,-0.015 0.123,-0.015C0.124,-0.014 0.126,-0.011 0.127,-0.006C0.118,-0.007 0.111,-0.007 0.107,-0.004C0.104,-0.001 0.099,0.001 0.093,0.002C0.078,-0.003 0.065,-0.011 0.055,-0.023C0.045,-0.035 0.036,-0.048 0.029,-0.063C0.021,-0.077 0.015,-0.091 0.009,-0.106C0.004,-0.121 -0.002,-0.134 -0.008,-0.146C-0.008,-0.148 -0.007,-0.149 -0.004,-0.149C-0.002,-0.149 0,-0.148 0.002,-0.148C-0.001,-0.155 -0.004,-0.162 -0.005,-0.17C-0.007,-0.179 -0.01,-0.185 -0.015,-0.19C0.004,-0.231 0.024,-0.273 0.046,-0.317C0.067,-0.361 0.089,-0.405 0.111,-0.451C0.133,-0.496 0.154,-0.542 0.176,-0.587C0.198,-0.633 0.219,-0.678 0.239,-0.723C0.257,-0.716 0.275,-0.708 0.292,-0.7C0.31,-0.691 0.326,-0.681 0.34,-0.669C0.354,-0.657 0.366,-0.644 0.376,-0.628C0.387,-0.613 0.393,-0.596 0.396,-0.576C0.395,-0.572 0.394,-0.571 0.392,-0.572C0.39,-0.574 0.388,-0.573 0.387,-0.57C0.39,-0.566 0.392,-0.564 0.392,-0.562C0.392,-0.56 0.392,-0.559 0.392,-0.557C0.391,-0.556 0.391,-0.553 0.391,-0.551C0.391,-0.548 0.392,-0.545 0.396,-0.54C0.392,-0.541 0.39,-0.54 0.389,-0.539C0.387,-0.537 0.385,-0.537 0.382,-0.538C0.385,-0.529 0.386,-0.522 0.385,-0.517C0.383,-0.511 0.382,-0.507 0.379,-0.502C0.376,-0.498 0.374,-0.494 0.373,-0.489C0.371,-0.484 0.371,-0.477 0.374,-0.469C0.371,-0.469 0.37,-0.468 0.369,-0.467C0.368,-0.466 0.367,-0.465 0.366,-0.464C0.366,-0.463 0.365,-0.461 0.364,-0.46C0.363,-0.459 0.361,-0.459 0.358,-0.46C0.36,-0.443 0.361,-0.426 0.36,-0.409C0.36,-0.391 0.359,-0.374 0.358,-0.356C0.358,-0.338 0.358,-0.32 0.358,-0.301C0.359,-0.282 0.362,-0.262 0.366,-0.242C0.394,-0.258 0.417,-0.28 0.434,-0.306C0.451,-0.332 0.465,-0.361 0.475,-0.393C0.485,-0.424 0.493,-0.459 0.499,-0.495C0.504,-0.532 0.51,-0.569 0.516,-0.606C0.523,-0.614 0.528,-0.622 0.533,-0.633C0.537,-0.643 0.541,-0.654 0.543,-0.665C0.546,-0.676 0.549,-0.687 0.552,-0.699C0.555,-0.71 0.559,-0.72 0.564,-0.729C0.576,-0.728 0.586,-0.725 0.594,-0.719C0.602,-0.714 0.61,-0.708 0.617,-0.701C0.624,-0.694 0.632,-0.688 0.64,-0.682C0.647,-0.676 0.657,-0.672 0.669,-0.67C0.678,-0.657 0.687,-0.644 0.694,-0.632C0.702,-0.62 0.707,-0.607 0.71,-0.592C0.706,-0.585 0.703,-0.578 0.701,-0.57C0.699,-0.563 0.697,-0.555 0.695,-0.547C0.693,-0.539 0.689,-0.532 0.686,-0.525C0.682,-0.519 0.676,-0.513 0.669,-0.509C0.667,-0.489 0.664,-0.471 0.66,-0.454C0.656,-0.437 0.653,-0.421 0.649,-0.404C0.646,-0.388 0.643,-0.371 0.641,-0.354C0.638,-0.336 0.637,-0.317 0.638,-0.296C0.632,-0.277 0.625,-0.258 0.618,-0.238C0.611,-0.218 0.606,-0.2 0.603,-0.183C0.59,-0.173 0.58,-0.161 0.573,-0.146C0.566,-0.132 0.559,-0.118 0.551,-0.104C0.548,-0.101 0.546,-0.1 0.545,-0.102C0.544,-0.104 0.541,-0.105 0.536,-0.105C0.537,-0.1 0.536,-0.096 0.533,-0.094C0.53,-0.093 0.53,-0.088 0.533,-0.08C0.522,-0.075 0.512,-0.068 0.504,-0.06C0.495,-0.051 0.486,-0.043 0.476,-0.036C0.466,-0.029 0.454,-0.024 0.441,-0.022C0.428,-0.02 0.41,-0.022 0.389,-0.03C0.357,-0.054 0.328,-0.081 0.303,-0.111C0.277,-0.142 0.257,-0.178 0.242,-0.22C0.236,-0.218 0.231,-0.214 0.228,-0.207C0.224,-0.201 0.221,-0.194 0.219,-0.187C0.216,-0.179 0.214,-0.173 0.211,-0.167C0.208,-0.161 0.204,-0.158 0.199,-0.158C0.198,-0.152 0.195,-0.147 0.192,-0.142C0.188,-0.137 0.185,-0.132 0.182,-0.127C0.178,-0.123 0.176,-0.117 0.174,-0.111C0.173,-0.105 0.174,-0.099 0.177,-0.092Z" style="fill:#e63946;fill-rule:nonzero;"/>
        </g>
        <g transform="matrix(12.4475,0,0,12.4475,12.637,16)">
            <path d="M0.091,-0.085C0.072,-0.099 0.056,-0.117 0.044,-0.139C0.032,-0.16 0.023,-0.183 0.016,-0.207C0.009,-0.231 0.005,-0.256 0.002,-0.282C0,-0.307 -0.001,-0.332 0,-0.355C0.006,-0.373 0.013,-0.389 0.021,-0.404C0.03,-0.418 0.039,-0.432 0.05,-0.446C0.06,-0.459 0.071,-0.472 0.083,-0.484C0.094,-0.496 0.105,-0.508 0.116,-0.521C0.12,-0.521 0.124,-0.52 0.127,-0.518C0.13,-0.525 0.133,-0.531 0.139,-0.536C0.144,-0.541 0.149,-0.546 0.155,-0.55C0.161,-0.555 0.167,-0.559 0.173,-0.563C0.179,-0.567 0.184,-0.572 0.188,-0.578C0.204,-0.582 0.218,-0.588 0.231,-0.595C0.244,-0.602 0.256,-0.61 0.268,-0.618C0.279,-0.627 0.291,-0.634 0.304,-0.642C0.316,-0.649 0.33,-0.654 0.347,-0.658C0.353,-0.665 0.36,-0.67 0.369,-0.675C0.377,-0.679 0.386,-0.684 0.395,-0.688C0.404,-0.691 0.412,-0.696 0.42,-0.7C0.429,-0.705 0.435,-0.711 0.44,-0.719C0.444,-0.714 0.45,-0.712 0.457,-0.713C0.464,-0.715 0.471,-0.717 0.477,-0.719C0.48,-0.719 0.484,-0.719 0.486,-0.717C0.489,-0.715 0.491,-0.713 0.494,-0.71C0.496,-0.708 0.498,-0.707 0.5,-0.706C0.501,-0.705 0.503,-0.707 0.505,-0.712C0.51,-0.711 0.512,-0.709 0.509,-0.705C0.507,-0.701 0.506,-0.699 0.505,-0.697C0.511,-0.699 0.517,-0.697 0.521,-0.694C0.525,-0.69 0.532,-0.688 0.541,-0.687C0.544,-0.683 0.545,-0.681 0.544,-0.679C0.543,-0.677 0.542,-0.674 0.541,-0.669C0.564,-0.662 0.579,-0.651 0.586,-0.635C0.592,-0.62 0.593,-0.604 0.588,-0.587C0.583,-0.571 0.573,-0.556 0.559,-0.542C0.545,-0.528 0.53,-0.518 0.513,-0.514C0.493,-0.508 0.474,-0.503 0.457,-0.498C0.439,-0.493 0.423,-0.487 0.407,-0.48C0.391,-0.474 0.376,-0.466 0.362,-0.458C0.348,-0.449 0.336,-0.438 0.325,-0.427C0.307,-0.422 0.291,-0.414 0.276,-0.405C0.261,-0.396 0.248,-0.386 0.235,-0.375C0.222,-0.364 0.21,-0.352 0.198,-0.34C0.187,-0.328 0.175,-0.316 0.163,-0.305C0.163,-0.294 0.161,-0.285 0.157,-0.279C0.153,-0.273 0.149,-0.268 0.145,-0.262C0.146,-0.249 0.149,-0.239 0.153,-0.23C0.157,-0.221 0.161,-0.212 0.166,-0.203C0.218,-0.188 0.273,-0.178 0.332,-0.174C0.39,-0.171 0.448,-0.169 0.505,-0.168C0.511,-0.16 0.517,-0.153 0.525,-0.146C0.532,-0.139 0.539,-0.132 0.545,-0.125C0.552,-0.118 0.556,-0.11 0.56,-0.1C0.564,-0.091 0.564,-0.079 0.563,-0.066C0.551,-0.055 0.539,-0.045 0.526,-0.035C0.513,-0.025 0.5,-0.015 0.487,-0.005C0.481,-0.004 0.474,-0.004 0.466,-0.005C0.458,-0.006 0.45,-0.006 0.441,-0.006C0.432,-0.006 0.423,-0.005 0.415,-0.004C0.406,-0.003 0.397,-0.001 0.39,0.002C0.349,0.001 0.307,-0.004 0.264,-0.013C0.221,-0.022 0.181,-0.033 0.145,-0.045C0.137,-0.053 0.13,-0.061 0.122,-0.069C0.114,-0.076 0.104,-0.082 0.091,-0.085Z" style="fill:#a8dadc;fill-rule:nonzero;"/>
        </g>
    </g>
</svg>
